<mxfile host="app.diagrams.net" modified="2022-05-27T05:11:14.866Z" agent="5.0 (Macintosh)" etag="QA-ZX_2e64EeWEOPAXB-" version="18.1.2" type="github">
  <diagram name="Page-1" id="e7e014a7-5840-1c2e-5031-d8a46d1fe8dd">
    <mxGraphModel dx="1186" dy="684" grid="1" gridSize="10" guides="1" tooltips="1" connect="1" arrows="1" fold="1" page="1" pageScale="1" pageWidth="1169" pageHeight="826" background="none" math="0" shadow="0">
      <root>
        <mxCell id="0" />
        <mxCell id="1" parent="0" />
        <mxCell id="nzecmcRljHNH1qpHZpEE-61" value="" style="edgeStyle=orthogonalEdgeStyle;rounded=0;orthogonalLoop=1;jettySize=auto;html=1;" edge="1" parent="1" source="nzecmcRljHNH1qpHZpEE-41" target="nzecmcRljHNH1qpHZpEE-43">
          <mxGeometry relative="1" as="geometry" />
        </mxCell>
        <mxCell id="nzecmcRljHNH1qpHZpEE-41" value="开始" style="rounded=1;whiteSpace=wrap;html=1;" vertex="1" parent="1">
          <mxGeometry x="70" y="210" width="90" height="50" as="geometry" />
        </mxCell>
        <mxCell id="nzecmcRljHNH1qpHZpEE-42" value="结束" style="rounded=1;whiteSpace=wrap;html=1;" vertex="1" parent="1">
          <mxGeometry x="715" y="410" width="90" height="50" as="geometry" />
        </mxCell>
        <mxCell id="nzecmcRljHNH1qpHZpEE-62" value="" style="edgeStyle=orthogonalEdgeStyle;rounded=0;orthogonalLoop=1;jettySize=auto;html=1;" edge="1" parent="1" source="nzecmcRljHNH1qpHZpEE-43" target="nzecmcRljHNH1qpHZpEE-44">
          <mxGeometry relative="1" as="geometry" />
        </mxCell>
        <mxCell id="nzecmcRljHNH1qpHZpEE-43" value="浏览器请求" style="rounded=0;whiteSpace=wrap;html=1;" vertex="1" parent="1">
          <mxGeometry x="230" y="210" width="90" height="50" as="geometry" />
        </mxCell>
        <mxCell id="nzecmcRljHNH1qpHZpEE-63" value="" style="edgeStyle=orthogonalEdgeStyle;rounded=0;orthogonalLoop=1;jettySize=auto;html=1;" edge="1" parent="1" source="nzecmcRljHNH1qpHZpEE-44" target="nzecmcRljHNH1qpHZpEE-47">
          <mxGeometry relative="1" as="geometry" />
        </mxCell>
        <mxCell id="nzecmcRljHNH1qpHZpEE-44" value="fileServer服务" style="rounded=0;whiteSpace=wrap;html=1;" vertex="1" parent="1">
          <mxGeometry x="400" y="210" width="90" height="50" as="geometry" />
        </mxCell>
        <mxCell id="nzecmcRljHNH1qpHZpEE-64" value="" style="edgeStyle=orthogonalEdgeStyle;rounded=0;orthogonalLoop=1;jettySize=auto;html=1;" edge="1" parent="1" source="nzecmcRljHNH1qpHZpEE-47" target="nzecmcRljHNH1qpHZpEE-48">
          <mxGeometry relative="1" as="geometry" />
        </mxCell>
        <mxCell id="nzecmcRljHNH1qpHZpEE-47" value="brfs客户端" style="rounded=0;whiteSpace=wrap;html=1;" vertex="1" parent="1">
          <mxGeometry x="560" y="210" width="90" height="50" as="geometry" />
        </mxCell>
        <mxCell id="nzecmcRljHNH1qpHZpEE-52" value="" style="edgeStyle=orthogonalEdgeStyle;rounded=0;orthogonalLoop=1;jettySize=auto;html=1;" edge="1" parent="1" source="nzecmcRljHNH1qpHZpEE-48" target="nzecmcRljHNH1qpHZpEE-51">
          <mxGeometry relative="1" as="geometry" />
        </mxCell>
        <mxCell id="nzecmcRljHNH1qpHZpEE-56" style="edgeStyle=orthogonalEdgeStyle;rounded=0;orthogonalLoop=1;jettySize=auto;html=1;entryX=0.5;entryY=0;entryDx=0;entryDy=0;" edge="1" parent="1" source="nzecmcRljHNH1qpHZpEE-48" target="nzecmcRljHNH1qpHZpEE-53">
          <mxGeometry relative="1" as="geometry" />
        </mxCell>
        <mxCell id="nzecmcRljHNH1qpHZpEE-48" value="文件是否存在" style="rhombus;whiteSpace=wrap;html=1;" vertex="1" parent="1">
          <mxGeometry x="720" y="195" width="80" height="80" as="geometry" />
        </mxCell>
        <mxCell id="nzecmcRljHNH1qpHZpEE-54" value="" style="edgeStyle=orthogonalEdgeStyle;rounded=0;orthogonalLoop=1;jettySize=auto;html=1;" edge="1" parent="1" source="nzecmcRljHNH1qpHZpEE-51" target="nzecmcRljHNH1qpHZpEE-42">
          <mxGeometry relative="1" as="geometry" />
        </mxCell>
        <mxCell id="nzecmcRljHNH1qpHZpEE-51" value="返回资源" style="rounded=0;whiteSpace=wrap;html=1;" vertex="1" parent="1">
          <mxGeometry x="715" y="320" width="90" height="50" as="geometry" />
        </mxCell>
        <mxCell id="nzecmcRljHNH1qpHZpEE-60" style="edgeStyle=orthogonalEdgeStyle;rounded=0;orthogonalLoop=1;jettySize=auto;html=1;entryX=1;entryY=0.5;entryDx=0;entryDy=0;" edge="1" parent="1" source="nzecmcRljHNH1qpHZpEE-53" target="nzecmcRljHNH1qpHZpEE-42">
          <mxGeometry relative="1" as="geometry">
            <Array as="points">
              <mxPoint x="920" y="435" />
            </Array>
          </mxGeometry>
        </mxCell>
        <mxCell id="nzecmcRljHNH1qpHZpEE-53" value="响应文件不存在" style="rounded=0;whiteSpace=wrap;html=1;" vertex="1" parent="1">
          <mxGeometry x="880" y="320" width="90" height="50" as="geometry" />
        </mxCell>
        <mxCell id="nzecmcRljHNH1qpHZpEE-55" value="是" style="text;html=1;strokeColor=none;fillColor=none;align=center;verticalAlign=middle;whiteSpace=wrap;rounded=0;" vertex="1" parent="1">
          <mxGeometry x="715" y="275" width="60" height="30" as="geometry" />
        </mxCell>
        <mxCell id="nzecmcRljHNH1qpHZpEE-59" value="否" style="text;html=1;strokeColor=none;fillColor=none;align=center;verticalAlign=middle;whiteSpace=wrap;rounded=0;" vertex="1" parent="1">
          <mxGeometry x="820" y="240" width="60" height="30" as="geometry" />
        </mxCell>
      </root>
    </mxGraphModel>
  </diagram>
</mxfile>
